# xmcd CD database file
#
# Track frame offsets:
#	150
#	2338
#	32120
#	54839
#	81402
#	104857
#	139279
#	167703
#	196968
#	216518
#	256607
#	273218
#	296487
#
# Disc length: 4174 seconds
#
# Revision: 2
# Processed by: cddbd v1.5.2PL0 Copyright (c) Steve Scherf et al.
# Submitted via: CDex 1.70beta2
#
DISCID=b9104c0d
DTITLE=Pepe Rivero Trio - Los Boleros de Chopin
DYEAR=2010
DGENRE=Jazz
TTITLE0=Obertura de los 30 segundos
TTITLE1=Nocturno en la celda "Op9 Nº2 "
TTITLE2=Vals de la media hora "Nº1 Op 64"
TTITLE3=Bolero Vals "Op64 Nº2"
TTITLE4=Vals de la Cartuja "Op69 Nº1"
TTITLE5=Vespere en Barcelona "Nocturno Op32 Nº9"
TTITLE6=Ballade para un invierno en Mallorca "Op23 Nº1"
TTITLE7=Prelude para la Sra Georgeo "Op28 Nº18"
TTITLE8=La Media Noche en el Mallorquín "Prelude4 Op28"
TTITLE9=Iré a Menorca "Op28 Nº15"
TTITLE10=Música para tus ojos negros "Estudio Op10 Nº3"
TTITLE11=Recordando a dos Grandes [Bonus Track]
TTITLE12=Mi Esperanza [Bonus Track]
EXTD=YEAR: 2010
EXTT0=
EXTT1=
EXTT2=
EXTT3=
EXTT4=
EXTT5=
EXTT6=
EXTT7=
EXTT8=
EXTT9=
EXTT10=
EXTT11=
EXTT12=
PLAYORDER=
